<svg xmlns="http://www.w3.org/2000/svg" width="100" height="100" viewBox="0 0 100 100"><path fill-rule="evenodd" clip-rule="evenodd" d="M63.943 64.94v-4.38c2.39-1.383 4-3.96 4-6.92 0-4.417-3.582-8-8-8-1.6 0-3.082.48-4.333 1.292-1.23-5.317-5.974-9.29-11.665-9.29-6.626 0-11.998 5.372-11.998 11.998 0 3.55 1.55 6.728 4 8.925v4.916c-4.777-2.767-8-7.92-8-13.84 0-8.835 7.163-15.997 15.998-15.997 6.004 0 11.23 3.31 13.965 8.203.664-.113 1.338-.205 2.033-.205 6.627 0 12 5.373 12 12 0 5.223-3.342 9.653-8 11.3zm-21.997-11.3c1.104 0 2 .897 2 2v16c0 1.104-.896 2-2 2s-2-.896-2-2v-16c0-1.103.896-2 2-2zm8 4c1.103 0 2 .896 2 2v16c0 1.103-.897 2-2 2s-2-.897-2-2v-16c0-1.105.895-2 2-2zm7.998-4c1.104 0 2 .897 2 2v16c0 1.104-.896 2-2 2s-2-.896-2-2v-16c0-1.103.896-2 2-2z"/></svg>