<svg xmlns="http://www.w3.org/2000/svg" width="100" height="100" viewBox="0 0 100 100"><path fill-rule="evenodd" clip-rule="evenodd" d="M59.66 46.733l-1.96 1.13c.19.682.3 1.396.3 2.137 0 .742-.11 1.456-.3 2.138l1.96 1.13c.955.553 1.283 1.775.73 2.732-.552.956-1.774 1.284-2.73.73l-1.955-1.127c-1.003 1.02-2.277 1.766-3.705 2.134V60c0 1.103-.896 2-2 2s-2-.897-2-2v-2.263c-1.428-.368-2.703-1.114-3.705-2.134L42.34 56.73c-.956.554-2.18.226-2.73-.73-.553-.957-.225-2.18.73-2.732l1.96-1.13c-.19-.682-.3-1.396-.3-2.138 0-.74.11-1.455.3-2.137l-1.96-1.13c-.955-.553-1.283-1.775-.73-2.732.552-.955 1.774-1.283 2.73-.73l1.955 1.128c1.002-1.02 2.277-1.766 3.705-2.134v-2.262c0-1.104.896-2 2-2s2 .896 2 2v2.262c1.428.368 2.702 1.114 3.705 2.134l1.954-1.128c.956-.553 2.18-.225 2.73.73.553.958.225 2.18-.73 2.733zM50 46c-2.21 0-4 1.792-4 4 0 2.21 1.79 4 4 4s4-1.79 4-4c0-2.208-1.79-4-4-4z"/></svg>