<svg xmlns="http://www.w3.org/2000/svg" width="100" height="100" viewBox="0 0 100 100"><path fill-rule="evenodd" clip-rule="evenodd" d="M64 64.943v-4.38c2.388-1.386 3.998-3.964 3.998-6.923 0-4.416-3.58-7.998-8-7.998-1.6 0-3.082.48-4.332 1.29-1.23-5.316-5.974-9.29-11.665-9.29-6.626 0-11.997 5.373-11.997 12 0 3.55 1.55 6.73 4 8.924v4.916c-4.777-2.768-8-7.922-8-13.84 0-8.836 7.163-16 15.998-16 6.005 0 11.23 3.313 13.966 8.205.664-.113 1.337-.205 2.033-.205 6.626 0 11.998 5.373 11.998 11.998 0 5.223-3.343 9.653-8 11.303zM42 57.64c1.106 0 2 .897 2 2 0 1.106-.894 2-2 2-1.103 0-1.998-.894-1.998-2 0-1.103.895-2 2-2zm0 8c1.106 0 2 .896 2 2 0 1.105-.894 2-2 2-1.103 0-1.998-.896-1.998-2 0-1.105.895-2 2-2zm8-4c1.105 0 2 .896 2 2 0 1.105-.895 2-2 2-1.104 0-2-.895-2-2s.896-2 2-2zm0 8c1.105 0 2 .895 2 2 0 1.104-.895 2-2 2-1.104 0-2-.896-2-2 0-1.105.896-2 2-2zm8-12c1.104 0 2 .897 2 2 0 1.106-.896 2-2 2-1.105 0-2-.894-2-2 0-1.103.896-2 2-2zm0 8c1.104 0 2 .896 2 2 0 1.105-.896 2-2 2-1.105 0-2-.896-2-2 0-1.105.896-2 2-2z"/></svg>