<svg xmlns="http://www.w3.org/2000/svg" width="100" height="100" viewBox="0 0 100 100"><path fill-rule="evenodd" clip-rule="evenodd" d="M68.866 36.46H30.87c-1.103 0-2-.897-2-2 0-1.104.897-2 2-2h37.996c1.104 0 2 .896 2 2 0 1.103-.895 2-2 2zm-35.995 4h29.997c1.104 0 2 .895 2 2 0 1.103-.896 1.998-2 1.998H32.87c-1.103 0-2-.896-2-2s.897-2 2-2zm12 7.998h21.997c1.104 0 2 .896 2 2 0 1.103-.896 2-2 2H44.87c-1.105 0-2-.897-2-2 0-1.104.895-2 2-2zm2 15.998h5.998c1.104 0 2 .896 2 2 0 1.103-.896 2-2 2h-6c-1.103 0-2-.897-2-2 0-1.104.897-2 2-2zm1-6c0-1.104.895-2 2-2h13.997c1.104 0 2 .897 2 2 0 1.104-.896 2-2 2H49.87c-1.105 0-2-.895-2-2z"/></svg>