<svg xmlns="http://www.w3.org/2000/svg" width="100" height="100" viewBox="0 0 100 100"><path fill-rule="evenodd" clip-rule="evenodd" d="M29.177 55.64c-.262-.645-.473-1.314-.648-2H72c0 .685-.07 1.35-.182 2h-42.64zm7.086-19.997c2.294-1.27 4.93-2 7.738-2 2.807 0 5.437.73 7.728 2H36.263zm-8.12 12c.084-.683.217-1.348.386-2h40.395c.55.613 1.04 1.28 1.455 2H28.142zm1.034-4c.28-.693.613-1.36.984-2h27.683c.04.068.084.135.123.205.664-.114 1.338-.205 2.033-.205 2.45 0 4.728.738 6.626 2h-37.45zm2.347-4c.58-.723 1.225-1.388 1.92-2h21.122c.69.61 1.326 1.28 1.903 2H31.523zM71.817 51.64H28.142c-.082-.655-.14-1.32-.14-1.998h43.3c.226.643.4 1.31.515 2zm-.516 6c-.246.7-.554 1.368-.92 2H31.524c-.505-.628-.957-1.298-1.363-2H71.3zm-37.856 4h35.48c-.68.76-1.447 1.435-2.3 2h-30.36c-1.017-.562-1.955-1.24-2.82-2z"/></svg>