<svg xmlns="http://www.w3.org/2000/svg" width="100" height="100" viewBox="0 0 100 100"><path fill-rule="evenodd" clip-rule="evenodd" d="M71.997 58h-4c-1.103 0-2-.896-2-2 0-1.105.897-2 2-2h4c1.105 0 2 .895 2 2 0 1.104-.894 2-2 2zM64.14 44.687c-.78.78-2.047.78-2.827 0s-.78-2.047 0-2.828l2.828-2.83c.78-.78 2.048-.78 2.83 0 .78.782.78 2.048 0 2.83l-2.83 2.827zm-2.838 15.31h-4.38c.68-1.175 1.077-2.538 1.077-3.997 0-4.418-3.582-8-8-8-4.417 0-8 3.582-8 8 0 1.46.397 2.822 1.08 3.998H38.7c-.445-1.252-.7-2.594-.7-3.998 0-6.627 5.374-12 12-12 6.627 0 12 5.372 12 12 0 1.404-.255 2.746-.698 3.998zM50 40.002c-1.104 0-2-.895-2-2v-3.998c0-1.104.896-2 2-2s2 .896 2 2v4c0 1.104-.896 2-2 2zm-14.14 4.687l-2.828-2.828c-.78-.782-.78-2.048 0-2.83.78-.78 2.047-.78 2.828 0l2.828 2.83c.78.78.78 2.046 0 2.827-.78.78-2.047.78-2.828 0zM34.002 56c0 1.104-.896 2-2 2h-4c-1.103 0-2-.896-2-2 0-1.105.897-2 2-2h4c1.104 0 2 .895 2 2zm6 7.998h19.997c1.103 0 2 .896 2 2 0 1.105-.897 2-2 2H40c-1.103 0-2-.895-2-2 0-1.103.897-2 2-2z"/></svg>