<svg xmlns="http://www.w3.org/2000/svg" width="100" height="100" viewBox="0 0 100 100"><path fill-rule="evenodd" clip-rule="evenodd" d="M69.763 46.758c1.368 1.95 2.18 4.318 2.18 6.883 0 6.626-5.372 12-12 12H43.947c-8.836 0-15.998-7.163-15.998-16s7.162-15.997 15.998-15.997c2.002 0 3.914.375 5.68 1.047 1.635-4.682 6.078-8.047 11.318-8.047.755 0 1.49.078 2.207.212-.13.575-.206 1.173-.206 1.788 0 4.418 3.58 8 7.998 8 .616 0 1.213-.077 1.79-.21.132.718.21 1.454.21 2.21 0 3.132-1.212 5.978-3.18 8.115zM31.947 49.64c0 6.628 5.37 12 11.998 12h15.998c4.418 0 8-3.583 8-8s-3.582-8-8-8c-1.6 0-3.083.483-4.334 1.292-1.232-5.316-5.974-9.29-11.665-9.29-6.627 0-11.998 5.372-11.998 12zm19.55-14.095zm7.658-4.695c-2.9.664-5.175 2.91-5.925 5.775 1.918 1.372 3.523 3.152 4.68 5.22.664-.113 1.337-.205 2.033-.205 2.618 0 5.033.85 7.005 2.27.858-.978 1.485-2.167 1.786-3.48-4.853-.905-8.675-4.724-9.58-9.58z"/></svg>