<svg xmlns="http://www.w3.org/2000/svg" width="100" height="100" viewBox="0 0 100 100"><path fill-rule="evenodd" clip-rule="evenodd" d="M50 61.998c-6.627 0-12-5.372-12-11.998 0-6.627 5.373-12 12-12 .755 0 1.49.08 2.207.213C52.075 38.79 52 39.386 52 40c0 4.42 3.58 8 8 8 .614 0 1.21-.076 1.787-.208.133.717.21 1.452.21 2.208 0 6.626-5.37 11.998-11.997 11.998zm-1.788-19.79c-3.556.813-6.21 3.99-6.21 7.792 0 4.417 3.58 8 7.998 8 3.802 0 6.978-2.656 7.79-6.212-4.853-.904-8.675-4.726-9.578-9.58z"/></svg>