<svg xmlns="http://www.w3.org/2000/svg" width="100" height="100" viewBox="0 0 100 100"><path fill-rule="evenodd" clip-rule="evenodd" d="M69.82 46.758c.616.88 1.1 1.854 1.468 2.884h.02-4.388c-1.384-2.39-3.962-4-6.92-4-1.6 0-3.083.48-4.334 1.29-1.23-5.315-5.974-9.29-11.665-9.29-6.625 0-11.997 5.373-11.997 12h-4c0-8.835 7.163-15.998 15.998-15.998 2.004 0 3.915.376 5.68 1.048 1.636-4.683 6.08-8.047 11.32-8.047.755 0 1.49.078 2.207.21-.132.577-.208 1.174-.208 1.79 0 4.418 3.58 7.998 7.998 7.998.616 0 1.212-.076 1.788-.207.134.717.212 1.452.212 2.207 0 3.134-1.212 5.978-3.18 8.115zM59.21 30.852c-2.9.663-5.175 2.91-5.924 5.774 1.916 1.372 3.52 3.153 4.678 5.222.664-.114 1.338-.205 2.033-.205 2.618 0 5.032.848 7.005 2.27.858-.98 1.485-2.168 1.785-3.48-4.853-.906-8.675-4.727-9.578-9.58zm-29.21 22.79H70c1.103 0 1.998.895 1.998 2s-.896 2-2 2H30.004c-1.104 0-2-.897-2-2s.896-2 2-2zm0 8H70c1.103 0 1.998.894 1.998 1.998s-.896 2-2 2H30.004c-1.104 0-2-.896-2-2s.896-2 2-2zm0 7.997H70c1.103 0 1.998.895 1.998 2s-.896 2-2 2H30.004c-1.104 0-2-.897-2-2s.896-2 2-2z"/></svg>