<svg xmlns="http://www.w3.org/2000/svg" width="100" height="100" viewBox="0 0 100 100"><path fill-rule="evenodd" clip-rule="evenodd" d="M79.996 43.642h-4c-1.103 0-2-.895-2-2 0-1.104.897-2 2-2h4c1.104 0 2 .896 2 2 0 1.106-.895 2-2 2zM72.14 30.33c-.78.78-2.047.78-2.828 0s-.78-2.047 0-2.828l2.828-2.828c.78-.78 2.047-.78 2.828 0 .78.78.78 2.047 0 2.828L72.14 30.33zm-2.948 15.607c.912 1.088 1.63 2.34 2.113 3.705h-4.387c-1.384-2.39-3.96-4-6.92-4-1.6 0-3.083.48-4.334 1.29-1.23-5.315-5.973-9.29-11.664-9.29-6.627 0-12 5.373-12 12h-3.998c0-8.836 7.162-16 15.998-16 1.572 0 3.09.233 4.523.656 2.195-2.828 5.618-4.654 9.475-4.654 6.627 0 12 5.37 12 11.998 0 1.516-.293 2.96-.806 4.295zM58 33.644c-2.213 0-4.216.898-5.663 2.35 2.34 1.436 4.285 3.454 5.63 5.854.663-.113 1.336-.205 2.032-.205 2.124 0 4.117.56 5.85 1.527.095-.494.148-1.004.148-1.527 0-4.418-3.58-8-8-8zm0-8c-1.105 0-2-.894-2-2v-3.998c0-1.104.895-2 2-2s2 .896 2 2v4c0 1.104-.896 2-2 2zM43.857 30.33l-2.827-2.828c-.78-.78-.78-2.047 0-2.828.78-.78 2.048-.78 2.828 0l2.828 2.828c.78.78.78 2.047 0 2.828-.78.78-2.046.78-2.828 0zM30.003 53.64h39.995c1.104 0 2 .897 2 2 0 1.106-.897 2-2 2H30.003c-1.104 0-2-.894-2-2 0-1.103.895-2 2-2zm0 8h39.995c1.104 0 2 .896 2 2 0 1.105-.897 2-2 2H30.003c-1.104 0-2-.895-2-2s.895-2 2-2zm0 8h39.995c1.104 0 2 .895 2 2 0 1.104-.897 2-2 2H30.003c-1.104 0-2-.896-2-2 0-1.105.895-2 2-2z"/></svg>