<svg xmlns="http://www.w3.org/2000/svg" width="100" height="100" viewBox="0 0 100 100"><path fill-rule="evenodd" clip-rule="evenodd" d="M60 65.64h-1.063l3.585-4.41C65.702 60.17 68 57.175 68 53.64c0-4.417-3.582-7.997-8-7.997-1.6 0-3.083.48-4.333 1.29-1.232-5.316-5.974-9.29-11.665-9.29-6.626 0-11.998 5.372-11.998 12 0 5.446 3.632 10.038 8.604 11.504l-1.35 3.777c-6.52-2.02-11.254-8.098-11.254-15.282 0-8.835 7.163-16 15.998-16 6.004 0 11.23 3.313 13.965 8.205.664-.114 1.337-.205 2.033-.205 6.627 0 12 5.37 12 11.998s-5.374 12-12 12zm-12-14h10l-6 10h7l-13 16 3.6-12H43l5-14z"/></svg>