<svg xmlns="http://www.w3.org/2000/svg" width="100" height="100" viewBox="0 0 100 100"><path fill-rule="evenodd" clip-rule="evenodd" d="M79.996 43.642h-4c-1.103 0-2-.895-2-2 0-1.104.897-2 2-2h4c1.104 0 2 .896 2 2 0 1.106-.895 2-2 2zM72.14 30.33c-.78.78-2.047.78-2.828 0s-.78-2.047 0-2.828l2.828-2.828c.78-.78 2.047-.78 2.828 0 .78.78.78 2.047 0 2.828L72.14 30.33zm-2.948 15.607c1.342 1.6 2.27 3.555 2.633 5.704h-.008c.11.653.18 1.32.18 2 0 6.628-5.372 12-11.998 12h-1.063l3.584-4.41C65.703 60.17 68 57.175 68 53.64c0-.69-.1-1.358-.264-2-.89-3.447-4.01-5.998-7.736-5.998-1.6 0-3.083.48-4.334 1.29-1.23-5.315-5.973-9.29-11.664-9.29-6.627 0-12 5.373-12 12 0 .682.07 1.348.182 2h-.014c.764 4.548 4.088 8.222 8.438 9.505l-1.35 3.777c-5.903-1.83-10.33-6.99-11.116-13.283-.082-.656-.138-1.32-.138-1.998 0-8.836 7.162-16 15.998-16 1.572 0 3.09.233 4.523.656 2.195-2.828 5.618-4.654 9.475-4.654 6.627 0 12 5.37 12 11.998-.002 1.516-.295 2.96-.808 4.295zM58 33.644c-2.213 0-4.216.898-5.663 2.35 2.34 1.436 4.285 3.452 5.63 5.854.663-.113 1.336-.205 2.032-.205 2.124 0 4.117.56 5.85 1.527.095-.494.148-1.004.148-1.527 0-4.418-3.58-8-8-8zm0-8c-1.105 0-2-.895-2-2v-3.998c0-1.104.895-2 2-2s2 .896 2 2v4c0 1.103-.896 2-2 2zM43.857 30.33l-2.827-2.828c-.78-.78-.78-2.047 0-2.828.78-.78 2.048-.78 2.828 0l2.828 2.828c.78.78.78 2.047 0 2.828-.78.78-2.046.78-2.828 0zM48 51.64h10l-6 10h7l-13 16 3.6-12H43l5-14z"/></svg>