<svg xmlns="http://www.w3.org/2000/svg" width="100" height="100" viewBox="0 0 100 100"><path fill-rule="evenodd" clip-rule="evenodd" d="M79.94 43.642h-4c-1.103 0-2-.895-2-2 0-1.104.897-2 2-2h4c1.105 0 2 .896 2 2 0 1.106-.895 2-2 2zM72.085 30.33c-.78.78-2.047.78-2.828 0-.78-.78-.78-2.047 0-2.828l2.828-2.828c.78-.78 2.047-.78 2.828 0 .78.78.78 2.048 0 2.828l-2.828 2.828zm-2.947 15.607c1.75 2.084 2.805 4.77 2.805 7.704 0 5.224-3.342 9.653-7.998 11.302v-4.38c2.39-1.384 4-3.962 4-6.92 0-4.418-3.582-8-8-8-1.6 0-3.084.48-4.334 1.29-1.23-5.316-5.973-9.29-11.664-9.29-6.627 0-11.998 5.373-11.998 12 0 3.55 1.55 6.727 4 8.924v4.916c-4.777-2.768-8-7.922-8-13.84 0-8.836 7.162-15.998 15.998-15.998 1.572 0 3.09.23 4.523.654 2.194-2.827 5.616-4.654 9.474-4.654 6.627 0 11.998 5.37 11.998 11.998 0 1.516-.292 2.96-.805 4.295zM57.943 33.644c-2.21 0-4.215.898-5.662 2.35 2.34 1.435 4.286 3.452 5.63 5.854.664-.113 1.338-.205 2.033-.205 2.125 0 4.12.56 5.85 1.527.096-.494.15-1.004.15-1.527 0-4.42-3.582-8-8-8zm0-8c-1.104 0-2-.895-2-2v-4c0-1.103.896-1.998 2-1.998 1.105 0 2 .895 2 2v3.998c0 1.106-.894 2-2 2zm-14.14 4.686l-2.828-2.828c-.78-.78-.78-2.047 0-2.828.78-.78 2.05-.78 2.828 0l2.828 2.828c.782.78.782 2.048 0 2.828-.78.78-2.046.78-2.827 0zm-1.858 23.31c1.105 0 2 .897 2 2v16c0 1.104-.895 2-2 2-1.104 0-2-.896-2-2v-16c0-1.103.897-2 2-2zm8 4c1.104 0 2 .896 2 2v16c0 1.103-.896 2-2 2-1.105 0-2-.897-2-2v-16c0-1.105.895-2 2-2zm7.998-4c1.105 0 2 .897 2 2v16c0 1.104-.895 2-2 2-1.104 0-2-.896-2-2v-16c0-1.103.897-2 2-2z"/></svg>