<svg xmlns="http://www.w3.org/2000/svg" width="100" height="100" viewBox="0 0 100 100"><path fill-rule="evenodd" clip-rule="evenodd" d="M63.943 64.94v-4.38c2.387-1.385 3.998-3.96 3.998-6.92 0-4.418-3.58-8-7.997-8-1.602 0-3.084.48-4.334 1.29-1.233-5.315-5.974-9.29-11.665-9.29-6.627 0-11.998 5.373-11.998 12 0 3.55 1.55 6.73 3.998 8.926v4.914c-4.777-2.768-7.998-7.922-7.998-13.84 0-8.836 7.162-15.998 15.998-15.998 6.004 0 11.23 3.312 13.965 8.203.664-.113 1.336-.205 2.033-.205 6.627 0 11.998 5.373 11.998 12 0 5.22-3.34 9.653-7.997 11.3zm-21.998-11.3c1.104 0 2 .896 2 2v4c0 1.104-.896 2-2 2-1.105 0-2-.896-2-2v-4c0-1.105.895-2 2-2zm0 12c1.104 0 2 .894 2 2v3.997c0 1.105-.896 2-2 2-1.105 0-2-.895-2-2V67.64c0-1.107.895-2 2-2zm7.998-8c1.105 0 2 .895 2 2v4c0 1.103-.895 2-2 2-1.104 0-1.998-.897-1.998-2v-4c0-1.105.895-2 1.998-2zm0 12c1.105 0 2 .894 2 1.997v4c0 1.105-.895 2-2 2-1.104 0-1.998-.895-1.998-2v-4c0-1.104.895-1.998 1.998-1.998zm8-16c1.104 0 2 .896 2 2v4c0 1.104-.896 2-2 2-1.105 0-2-.896-2-2v-4c0-1.105.895-2 2-2zm0 12c1.104 0 2 .894 2 2v3.997c0 1.105-.896 2-2 2-1.105 0-2-.895-2-2V67.64c0-1.107.895-2 2-2z"/></svg>