<svg xmlns="http://www.w3.org/2000/svg" width="100" height="100" viewBox="0 0 100 100"><path fill-rule="evenodd" clip-rule="evenodd" d="M79.94 43.64h-4c-1.103 0-2-.894-2-2 0-1.103.897-1.997 2-1.997h4c1.105 0 2 .895 2 1.998 0 1.106-.895 2-2 2zm-7.856-13.31c-.78.78-2.047.78-2.828 0-.78-.78-.78-2.048 0-2.828l2.828-2.828c.78-.78 2.047-.78 2.828 0 .78.78.78 2.047 0 2.828l-2.828 2.827zm-2.947 15.606c1.75 2.086 2.806 4.77 2.806 7.705 0 6.626-5.372 12-12 12H43.947c-8.835 0-15.998-7.163-15.998-16s7.163-15.997 15.998-15.997c1.572 0 3.09.232 4.523.654 2.194-2.827 5.617-4.654 9.474-4.654 6.627 0 12 5.373 12 11.998-.002 1.516-.295 2.962-.807 4.296zm-37.19 3.705c0 6.628 5.37 12 11.998 12h15.998c4.418 0 8-3.583 8-8s-3.582-8-8-8c-1.6 0-3.083.483-4.333 1.292-1.23-5.316-5.974-9.29-11.665-9.29-6.627 0-11.998 5.372-11.998 12zm25.996-15.997c-2.212 0-4.215.898-5.662 2.35 2.34 1.435 4.286 3.452 5.63 5.853.664-.113 1.337-.205 2.033-.205 2.125 0 4.12.56 5.85 1.528.096-.494.15-1.004.15-1.527 0-4.415-3.582-7.997-8-7.997zm0-8c-1.104 0-2-.895-2-2v-3.998c0-1.105.897-2 2-2 1.105 0 2 .895 2 2v4c0 1.104-.894 1.998-2 1.998zm-14.14 4.686L40.976 27.5c-.78-.78-.78-2.048 0-2.828.78-.78 2.047-.78 2.827 0l2.828 2.828c.782.78.782 2.047 0 2.827-.78.78-2.046.78-2.827 0z"/></svg>