<svg xmlns="http://www.w3.org/2000/svg" width="100" height="100" viewBox="0 0 100 100"><path fill-rule="evenodd" clip-rule="evenodd" d="M69.762 46.758c1.37 1.95 2.18 4.318 2.18 6.883 0 5.222-3.342 9.653-7.998 11.302v-4.38c2.39-1.386 3.998-3.962 3.998-6.92 0-4.42-3.58-8-7.998-8-1.6 0-3.084.48-4.334 1.29-1.23-5.316-5.973-9.29-11.664-9.29-6.627 0-11.998 5.372-11.998 12 0 3.548 1.55 6.728 3.998 8.925v4.914c-4.775-2.767-7.998-7.92-7.998-13.84 0-8.835 7.162-15.997 15.998-15.997 2.002 0 3.914.375 5.68 1.047 1.635-4.682 6.078-8.047 11.318-8.047.756 0 1.49.078 2.207.212-.13.575-.206 1.173-.206 1.788 0 4.418 3.58 8 7.998 8 .615 0 1.213-.077 1.79-.21.132.718.21 1.454.21 2.21 0 3.132-1.212 5.977-3.18 8.115zM59.154 30.85c-2.9.664-5.174 2.91-5.924 5.775 1.918 1.372 3.523 3.152 4.68 5.22.664-.112 1.336-.204 2.033-.204 2.617 0 5.033.85 7.006 2.272.856-.98 1.483-2.168 1.784-3.482-4.853-.905-8.675-4.725-9.58-9.58zm-17.21 22.79c1.106 0 2 .896 2 2v4c0 1.104-.894 2-2 2-1.103 0-2-.896-2-2v-4c0-1.105.898-2 2-2zm0 12c1.106 0 2 .894 2 2v3.997c0 1.105-.894 2-2 2-1.103 0-2-.895-2-2V67.64c0-1.107.898-2 2-2zm8-8c1.105 0 2 .895 2 2v4c0 1.103-.896 2-2 2s-2-.897-2-2v-4c0-1.105.896-2 2-2zm0 12c1.105 0 2 .894 2 1.997v4c0 1.105-.896 2-2 2s-2-.895-2-2v-4c0-1.104.896-1.998 2-1.998zm8-16c1.104 0 2 .896 2 2v4c0 1.104-.896 2-2 2-1.105 0-2-.896-2-2v-4c0-1.105.896-2 2-2zm0 12c1.104 0 2 .894 2 2v3.997c0 1.105-.896 2-2 2-1.105 0-2-.895-2-2V67.64c0-1.107.896-2 2-2z"/></svg>