<svg xmlns="http://www.w3.org/2000/svg" width="100" height="100" viewBox="0 0 100 100"><path fill-rule="evenodd" clip-rule="evenodd" d="M61.998 65.46v-4.08c3.448-.892 6-4.013 6-7.74 0-4.416-3.582-7.998-8-7.998-1.6 0-3.083.48-4.333 1.29-1.23-5.316-5.973-9.29-11.664-9.29-6.626 0-11.998 5.373-11.998 12 0 4.438 2.417 8.305 6 10.38v4.444c-5.86-2.375-10-8.113-10-14.825 0-8.834 7.163-15.998 16-15.998 6.003 0 11.228 3.312 13.964 8.204.664-.113 1.336-.205 2.033-.205 6.625 0 11.997 5.374 11.997 12 0 5.946-4.326 10.866-10 11.82zm-18.926-5.82c.553-.956 1.775-1.282 2.732-.73L48 60.175V57.64c0-1.103.896-2 2-2s2 .897 2 2v2.536l2.195-1.268c.957-.55 2.18-.225 2.73.732.554.957.226 2.18-.73 2.732L54 63.64l2.195 1.268c.956.553 1.284 1.775.73 2.732-.55.955-1.773 1.283-2.73.73L52 67.104v2.535c0 1.104-.896 2-2 2s-2-.896-2-2v-2.536l-2.195 1.268c-.957.553-2.18.225-2.732-.73-.552-.957-.225-2.18.732-2.732L46 63.64l-2.195-1.267c-.957-.553-1.284-1.775-.733-2.732zm6.928 6c1.104 0 2-.895 2-2 0-1.104-.896-2-2-2s-2 .896-2 2 .896 2 2 2z"/></svg>