<svg xmlns="http://www.w3.org/2000/svg" width="100" height="100" viewBox="0 0 100 100"><path fill-rule="evenodd" clip-rule="evenodd" d="M69.82 46.758c1.003 1.43 1.698 3.09 2.002 4.883h-.004c.11.653.18 1.318.18 2 0 6.628-5.372 12-12 12h-1.06l3.583-4.412C65.703 60.17 68 57.178 68 53.64c0-.69-.1-1.358-.264-2-.89-3.446-4.01-5.998-7.737-5.998-1.6 0-3.083.48-4.334 1.29-1.23-5.315-5.974-9.29-11.665-9.29-6.625 0-11.997 5.373-11.997 12 0 .683.07 1.348.18 2h-.014c.763 4.547 4.087 8.222 8.437 9.504l-1.35 3.778c-5.903-1.83-10.33-6.99-11.116-13.283-.08-.655-.138-1.32-.138-1.998 0-8.836 7.163-15.998 15.998-15.998 2.003 0 3.914.375 5.68 1.048 1.635-4.683 6.08-8.047 11.318-8.047.756 0 1.492.078 2.208.21-.132.577-.208 1.174-.208 1.79 0 4.417 3.582 7.998 8 7.998.615 0 1.21-.076 1.787-.207.134.716.212 1.452.212 2.207 0 3.133-1.21 5.978-3.178 8.115zM59.21 30.852c-2.9.663-5.175 2.91-5.924 5.774 1.916 1.372 3.52 3.153 4.678 5.222.664-.114 1.338-.205 2.033-.205 2.618 0 5.032.848 7.005 2.27.858-.978 1.485-2.167 1.785-3.48-4.853-.907-8.675-4.727-9.578-9.58zm-11.21 20.79H58l-6 9.998h7L46 77.638l3.6-11.998h-6.598l5-14z"/></svg>