<svg xmlns="http://www.w3.org/2000/svg" width="100" height="100" viewBox="0 0 100 100"><path fill-rule="evenodd" clip-rule="evenodd" d="M72.997 71.64c-1.104 0-2-.896-2-2 0-1.105.896-2 2-2s2 .895 2 2c0 1.104-.895 2-2 2zm-9-6.7v-4.38c2.39-1.383 4-3.96 4-6.92 0-4.417-3.58-8-7.998-8-1.602 0-3.084.48-4.335 1.292-1.23-5.317-5.973-9.29-11.664-9.29-6.626 0-11.998 5.372-11.998 11.998 0 3.55 1.55 6.728 4 8.925v4.916c-4.777-2.767-8-7.92-8-13.84 0-8.835 7.163-15.997 16-15.997 6.003 0 11.228 3.31 13.964 8.203.664-.113 1.337-.205 2.033-.205 6.625 0 11.997 5.373 11.997 12 0 5.223-3.342 9.653-8 11.3zm-32.994 7.7c1.104 0 2 .894 2 2 0 1.103-.896 2-2 2s-2-.897-2-2c0-1.107.895-2 2-2zm9.998-17c0-1.103-.103-2 1-2s1 .897 1 2v24h-2c0-2.21-1.79-4-3.998-4v-2c1.543 0 2.937.6 4 1.556V55.64zm9 14c-1.104 0-1-.896-1-2v-8c0-1.104-.104-2 1-2s1 .896 1 2v8c0 1.104.104 2-1 2zm0 4c1.104 0 2 .894 2 2 0 1.103-.896 2-2 2s-2-.897-2-2c0-1.107.896-2 2-2zm8-20c1.103 0 1 .897 1 2v18.017c1.822-2.434 4.722-4.018 7.998-4.018v2c-4.418 0-8 3.58-8 8h-2c0-.274.02-.542.042-.808-.054-.334-.04-.744-.04-1.193v-22c0-1.103-.105-2 1-2z"/></svg>