<svg xmlns="http://www.w3.org/2000/svg" width="100" height="100" viewBox="0 0 100 100"><path fill-rule="evenodd" clip-rule="evenodd" d="M64 64.94v-4.38c2.388-1.383 3.998-3.96 3.998-6.92 0-4.417-3.58-8-7.998-8-1.6 0-3.084.48-4.334 1.292-1.23-5.317-5.974-9.29-11.665-9.29-6.625 0-11.997 5.372-11.997 11.998 0 3.55 1.55 6.728 4 8.925v4.916c-4.777-2.767-8-7.92-8-13.84 0-8.835 7.163-15.997 15.998-15.997 6.005 0 11.23 3.31 13.967 8.203.663-.113 1.336-.205 2.033-.205 6.626 0 11.998 5.373 11.998 12 0 5.223-3.342 9.653-8 11.3zM42 65.64c-1.104 0-1-.896-1-2v-8c0-1.103-.104-2 1-2s1 .897 1 2v8c0 1.104.104 2-1 2zm0 4c1.104 0 2 .895 2 2 0 1.104-.896 2-2 2s-2-.896-2-2c0-1.105.895-2 2-2zm8 0c-1.105 0-1-.896-1-2v-8c0-1.104-.105-2 1-2s1 .896 1 2v8c0 1.104.103 2-1 2zm0 4c1.103 0 1.998.894 1.998 2 0 1.103-.895 2-2 2s-2-.897-2-2c0-1.107.896-2 2-2zm7.998-8c-1.104 0-1-.896-1-2v-8c0-1.103-.104-2 1-2s1 .897 1 2v8c0 1.104.104 2-1 2zm0 4c1.104 0 2 .895 2 2 0 1.104-.896 2-2 2s-2-.896-2-2c0-1.105.896-2 2-2z"/></svg>