<svg xmlns="http://www.w3.org/2000/svg" width="100" height="100" viewBox="0 0 100 100"><path fill-rule="evenodd" clip-rule="evenodd" d="M59.943 41.642c-.696 0-1.37.092-2.033.205-2.736-4.892-7.96-8.203-13.965-8.203-8.835 0-15.998 7.162-15.998 15.997 0 5.993 3.3 11.208 8.177 13.948.276-1.262.892-2.465 1.873-3.445l.057-.057c-3.644-2.06-6.106-5.963-6.106-10.445 0-6.625 5.372-11.997 11.998-11.997 5.69 0 10.433 3.974 11.665 9.29 1.25-.81 2.734-1.29 4.334-1.29 4.418 0 8 3.58 8 7.998 0 3.444-2.183 6.372-5.236 7.5.788 1.145 1.194 2.47 1.222 3.806 4.665-1.645 8.014-6.078 8.014-11.305-.002-6.626-5.374-11.998-12-11.998zM42.945 60.85l-2.12 2.12c-1.172 1.173-1.172 3.07 0 4.243 1.17 1.172 3.07 1.172 4.24 0 1.173-1.172 1.173-3.07 0-4.242l-2.12-2.12zm7 7.998l-2.12 2.12c-1.173 1.173-1.173 3.073 0 4.243 1.17 1.173 3.07 1.173 4.24 0 1.172-1.17 1.172-3.07 0-4.24l-2.12-2.122zm7-7.998l-2.122 2.12c-1.172 1.173-1.172 3.07 0 4.243 1.17 1.172 3.07 1.172 4.242 0 1.17-1.172 1.17-3.07 0-4.242l-2.12-2.12z"/></svg>