<svg xmlns="http://www.w3.org/2000/svg" width="100" height="100" viewBox="0 0 100 100"><path fill="#FFF" d="M66 52h-3c-1.105 0-2-.895-2-2 0-1.103.895-2 2-2h3c1.103 0 2-.895 2-1.998 0-1.105-.897-2-2-2s-2-.896-2-2 .895-2 2-2c.137 0 .27.014.4.04 3.12.212 5.597 2.784 5.597 5.96C71.997 49.314 69.312 52 66 52zm-10-4H34c-1.104 0-2 .897-2 2 0 1.105.896 2 2 2H56c3.312 0 6 2.688 6 6 0 3.176-2.477 5.748-5.598 5.96-.13.026-.263.04-.403.04-1.105 0-2-.896-2-2 0-1.105.895-2 2-2s2-.896 2-2-.897-2-2-2H34c-3.313 0-6-2.686-6-6 0-3.174 2.476-5.746 5.597-5.958.13-.026.265-.04.402-.04H56c1.103 0 2-.896 2-2s-.897-2-2-2-2-.895-2-2c0-1.104.895-2 2-2 .14 0 .27.015.402.04 3.12.212 5.597 2.784 5.597 5.96 0 3.312-2.688 6-6 6z"/></svg>